<svg width="43" height="43" viewBox="0 0 43 43" fill="none" xmlns="http://www.w3.org/2000/svg">
<path d="M17.393 0H15.793V3.525H17.393V0Z" fill="#FF671B"/>
<path d="M22.133 0H20.533V3.525H22.133V0Z" fill="#FF671B"/>
<path d="M26.8739 0H25.2739V3.525H26.8739V0Z" fill="#FF671B"/>
<path d="M12.652 0H11.052V3.525H12.652V0Z" fill="#FF671B"/>
<path d="M31.6139 0H30.0139V3.525H31.6139V0Z" fill="#FF671B"/>
<path d="M17.393 39.142H15.793V42.667H17.393V39.142Z" fill="#FF671B"/>
<path d="M22.133 39.142H20.533V42.667H22.133V39.142Z" fill="#FF671B"/>
<path d="M26.8739 39.142H25.2739V42.667H26.8739V39.142Z" fill="#FF671B"/>
<path d="M12.652 39.142H11.052V42.667H12.652V39.142Z" fill="#FF671B"/>
<path d="M31.6139 39.142H30.0139V42.667H31.6139V39.142Z" fill="#FF671B"/>
<path d="M42.667 15.793H39.135V17.393H42.667V15.793Z" fill="#FF671B"/>
<path d="M42.667 20.533H39.135V22.133H42.667V20.533Z" fill="#FF671B"/>
<path d="M42.667 25.275H39.135V26.875H42.667V25.275Z" fill="#FF671B"/>
<path d="M42.667 11.052H39.135V12.652H42.667V11.052Z" fill="#FF671B"/>
<path d="M42.667 30.016H39.135V31.616H42.667V30.016Z" fill="#FF671B"/>
<path d="M3.52 15.793H0V17.393H3.52V15.793Z" fill="#FF671B"/>
<path d="M3.52 20.533H0V22.133H3.52V20.533Z" fill="#FF671B"/>
<path d="M3.52 25.275H0V26.875H3.52V25.275Z" fill="#FF671B"/>
<path d="M3.52 11.052H0V12.652H3.52V11.052Z" fill="#FF671B"/>
<path d="M3.52 30.016H0V31.616H3.52V30.016Z" fill="#FF671B"/>
<path d="M29.3329 25.868C27.4219 25.868 25.8669 27.423 25.8669 29.334C25.8669 31.246 27.4219 32.801 29.3329 32.801C31.2449 32.801 32.7999 31.246 32.7999 29.334C32.7999 27.422 31.2449 25.868 29.3329 25.868ZM29.3329 31.201C28.3039 31.201 27.4669 30.363 27.4669 29.334C27.4669 28.305 28.3039 27.468 29.3329 27.468C30.3619 27.468 31.1999 28.305 31.1999 29.334C31.1999 30.363 30.3619 31.201 29.3329 31.201Z" fill="#FF671B"/>
<path d="M34.0671 5.12598H31.6141H30.0141H26.8731H25.2731H22.1311H20.5311H17.3901H15.7901H12.6481H11.0481H8.58612C6.67512 5.12598 5.12012 6.68098 5.12012 8.59298V11.052V12.652V15.794V17.394V25.276V26.876V30.018V31.618V34.077C5.12012 35.989 6.67512 37.544 8.58612 37.544H11.0521H12.6521H15.7941H17.3941H20.5351H22.1351H25.2771H26.8771H30.0181H31.6181H34.0711C35.9831 37.544 37.5381 35.989 37.5381 34.077V31.618V30.018V26.874V25.274V22.132V20.532V17.391V15.791V12.649V11.049V8.58998C37.5341 6.68098 35.9791 5.12598 34.0671 5.12598ZM35.9341 12.652V15.794V17.394V20.535V22.135V25.277V26.877V30.019V31.619V34.078C35.9341 35.107 35.0961 35.945 34.0671 35.945H31.6141H30.0141H26.8731H25.2731H22.1311H20.5311H17.3901H15.7901H12.6481H11.0481H8.58612C7.55712 35.945 6.72012 35.107 6.72012 34.078V31.619V30.019V26.874V25.274V17.392V15.792V12.65V11.05V8.59098C6.72012 7.56198 7.55712 6.72398 8.58612 6.72398H11.0521H12.6521H15.7941H17.3941H20.5351H22.1351H25.2771H26.8771H30.0181H31.6181H34.0711C35.1001 6.72398 35.9381 7.56198 35.9381 8.59098V11.05V12.652H35.9341Z" fill="#B8B8B8"/>
<path d="M18.667 12.533H10.667V14.133H18.667V12.533Z" fill="#FF671B"/>
<path d="M18.667 17.868H10.667V19.468H18.667V17.868Z" fill="#FF671B"/>
<path d="M18.667 23.201H10.667V24.801H18.667V23.201Z" fill="#FF671B"/>
</svg>
