<svg width="48" height="53" viewBox="0 0 48 53" fill="none" xmlns="http://www.w3.org/2000/svg">
<path d="M18.4001 30.7041H9.6001V21.9041H18.4001V30.7041ZM11.2001 29.1041H16.8001V23.5041H11.2001V29.1041Z" fill="#FF671B"/>
<path d="M30.3991 30.7041H21.6001V21.9041H30.3991V30.7041ZM23.2001 29.1041H28.8001V23.5041H23.2001V29.1041Z" fill="#FF671B"/>
<path d="M42.3991 30.7041H33.6001V21.9041H42.3991V30.7041ZM35.2001 29.1041H40.8001V23.5041H35.2001V29.1041Z" fill="#FF671B"/>
<path d="M18.4001 42.7041H9.6001V33.9041H18.4001V42.7041ZM11.2001 41.1041H16.8001V35.5041H11.2001V41.1041Z" fill="#FF671B"/>
<path d="M30.3991 42.7041H21.6001V33.9041H30.3991V42.7041ZM23.2001 41.1041H28.8001V35.5041H23.2001V41.1041Z" fill="#FF671B"/>
<path d="M42.3991 42.7041H33.6001V33.9041H42.3991V42.7041ZM35.2001 41.1041H40.8001V35.5041H35.2001V41.1041Z" fill="#FF671B"/>
<path d="M42.3991 17.104H9.6001V18.704H42.3991V17.104Z" fill="#FFB38D"/>
<path d="M18.6459 13.409L17.2959 12.55L17.7259 11.875C19.7249 8.734 19.7249 4.675 17.7259 1.534L17.2959 0.859L18.6459 0L19.0749 0.675C21.4059 4.338 21.4059 9.071 19.0749 12.735L18.6459 13.409Z" fill="white"/>
<path d="M22.394 7.50405H34.339C34.392 6.97205 34.392 6.43705 34.339 5.90405H22.394C22.427 6.43705 22.427 6.97105 22.394 7.50405Z" fill="white"/>
<path d="M43.2001 5.90405H39.163C39.196 6.43705 39.196 6.97105 39.163 7.50405H43.2001C44.5231 7.50405 45.6 8.58105 45.6 9.90405V43.5041C45.6 44.8271 44.5231 45.9041 43.2001 45.9041H8.80005C7.47705 45.9041 6.40005 44.8271 6.40005 43.5041V9.90405C6.40005 8.58105 7.47705 7.50405 8.80005 7.50405H17.57C17.623 6.97205 17.623 6.43705 17.57 5.90405H8.80005C6.59405 5.90405 4.80005 7.69805 4.80005 9.90405V43.5041C4.80005 45.7101 6.59405 47.5041 8.80005 47.5041H43.2001C45.4061 47.5041 47.2001 45.7101 47.2001 43.5041V9.90405C47.2001 7.69905 45.4061 5.90405 43.2001 5.90405Z" fill="white"/>
<path d="M35.414 13.409L34.064 12.55L34.494 11.875C36.493 8.734 36.493 4.675 34.494 1.534L34.064 0.859L35.414 0L35.844 0.675C38.175 4.338 38.175 9.071 35.844 12.735L35.414 13.409Z" fill="white"/>
<path d="M42.399 52.304H4C1.794 52.304 0 50.51 0 48.304V10.704H1.6V48.304C1.6 49.627 2.677 50.704 4 50.704H42.399V52.304Z" fill="#B8B8B8"/>
</svg>
