<svg width="64" height="64" viewBox="0 0 64 64" fill="none" xmlns="http://www.w3.org/2000/svg">
<path d="M27.466 8H25.866V12.266H27.466V8Z" fill="#FF671B"/>
<path d="M32.7999 8H31.2V12.266H32.7999V8Z" fill="#FF671B"/>
<path d="M38.133 8H36.533V12.266H38.133V8Z" fill="#FF671B"/>
<path d="M22.133 8H20.533V12.266H22.133V8Z" fill="#FF671B"/>
<path d="M43.466 8H41.866V12.266H43.466V8Z" fill="#FF671B"/>
<path d="M27.466 51.733H25.866V56H27.466V51.733Z" fill="#FF671B"/>
<path d="M32.7999 51.733H31.2V56H32.7999V51.733Z" fill="#FF671B"/>
<path d="M38.133 51.733H36.533V56H38.133V51.733Z" fill="#FF671B"/>
<path d="M22.133 51.733H20.533V56H22.133V51.733Z" fill="#FF671B"/>
<path d="M43.466 51.733H41.866V56H43.466V51.733Z" fill="#FF671B"/>
<path d="M56 25.866H51.7271V27.466H56V25.866Z" fill="#FF671B"/>
<path d="M56 31.2H51.7271V32.7999H56V31.2Z" fill="#FF671B"/>
<path d="M56 36.533H51.7271V38.133H56V36.533Z" fill="#FF671B"/>
<path d="M56 20.533H51.7271V22.133H56V20.533Z" fill="#FF671B"/>
<path d="M56 41.866H51.7271V43.466H56V41.866Z" fill="#FF671B"/>
<path d="M12.259 25.866H8V27.466H12.259V25.866Z" fill="#FF671B"/>
<path d="M12.259 31.2H8V32.7999H12.259V31.2Z" fill="#FF671B"/>
<path d="M12.259 36.533H8V38.133H12.259V36.533Z" fill="#FF671B"/>
<path d="M12.259 20.533H8V22.133H12.259V20.533Z" fill="#FF671B"/>
<path d="M12.259 41.866H8V43.466H12.259V41.866Z" fill="#FF671B"/>
<path d="M46.3259 50.133H17.6589C15.5629 50.133 13.8589 48.429 13.8589 46.333V17.666C13.8589 15.57 15.5629 13.866 17.6589 13.866H46.3259C48.4219 13.866 50.1259 15.57 50.1259 17.666V46.333C50.1259 48.429 48.4219 50.133 46.3259 50.133ZM17.6589 15.466C16.4459 15.466 15.4589 16.453 15.4589 17.666V46.333C15.4589 47.546 16.4459 48.533 17.6589 48.533H46.3259C47.5389 48.533 48.5259 47.546 48.5259 46.333V17.666C48.5259 16.453 47.5389 15.466 46.3259 15.466H17.6589Z" fill="#B8B8B8"/>
<path d="M36.7749 39.8559C32.4429 39.8559 28.9189 36.3319 28.9189 31.9999C28.9189 27.6669 32.4429 24.1429 36.7749 24.1429C41.1079 24.1429 44.6319 27.6669 44.6319 31.9999C44.6329 36.3319 41.1079 39.8559 36.7749 39.8559ZM36.7749 25.7419C33.3249 25.7419 30.5179 28.5499 30.5179 31.9999C30.5179 35.4499 33.3249 38.2569 36.7749 38.2569C40.2249 38.2569 43.0329 35.4499 43.0329 31.9999C43.0329 28.5499 40.2259 25.7419 36.7749 25.7419Z" fill="#FF671B"/>
<path d="M27.366 39.7279C23.069 39.7279 19.574 36.2319 19.574 31.9349C19.574 27.6379 23.069 24.1429 27.366 24.1429C31.663 24.1429 35.158 27.6379 35.158 31.9349C35.158 36.2319 31.663 39.7279 27.366 39.7279ZM27.366 25.7419C23.952 25.7419 21.174 28.5199 21.174 31.9339C21.174 35.3489 23.952 38.1269 27.366 38.1269C30.78 38.1269 33.558 35.3489 33.558 31.9339C33.559 28.5209 30.78 25.7419 27.366 25.7419Z" fill="#FF671B"/>
</svg>
