<svg width="64" height="64" viewBox="0 0 64 64" fill="none" xmlns="http://www.w3.org/2000/svg">
<path d="M47.73 13.042H16.53L17.149 11.443H47.357L47.73 13.042Z" fill="#727271"/>
<path d="M16.2038 33.916C15.3328 27.761 13.0048 22.54 9.79083 19.887L8.80083 19.069L9.97183 18.541C13.4188 16.987 15.8338 13.815 16.4328 10.134H6.17983V40.534H8.97683C9.13183 41.124 9.35483 41.663 9.66983 42.134H4.57983V8.534H18.2048L18.1328 9.4C17.7818 13.628 15.3508 17.384 11.6938 19.46C14.9418 22.722 17.2168 28.414 17.9368 34.905C17.3478 34.423 16.7698 34.093 16.2038 33.916Z" fill="#FF671B"/>
<path d="M46.1539 34.927C46.8709 28.427 49.1469 22.725 52.3999 19.459C48.7429 17.383 46.3109 13.626 45.9619 9.39899L45.8899 8.53299H59.5139V42.133H54.4459C54.7709 41.614 55.0039 41.081 55.1399 40.533H57.9139V10.133H47.6609C48.2589 13.815 50.6729 16.987 54.1209 18.54L55.2919 19.068L54.3019 19.886C51.0859 22.541 48.7569 27.767 47.8879 33.927C47.2699 34.125 46.6979 34.478 46.1539 34.927Z" fill="#FF671B"/>
<path d="M36.7088 55.466H27.3518V49.576H28.9508V53.867H35.1098V49.576H36.7088V55.466Z" fill="#727271"/>
<path d="M25.0319 50.51L24.0999 48.956L25.9219 45.919C26.5609 44.853 27.2339 44.41 27.9289 44.601C28.6079 44.789 28.9509 45.484 28.9509 46.666V49.575H27.3509V46.666V46.647C27.3329 46.677 27.3129 46.709 27.2919 46.742L25.0319 50.51Z" fill="#727271"/>
<path d="M38.9979 50.461L36.7669 46.742C36.7469 46.71 36.7279 46.68 36.7089 46.65V46.667V49.576H35.1089V46.667C35.1089 45.484 35.4529 44.79 36.1319 44.602C36.8229 44.412 37.4989 44.854 38.1389 45.92L39.9309 48.907L38.9979 50.461Z" fill="#727271"/>
<path d="M5.29092 53.867L3.91992 53.042L8.19492 45.918C8.83292 44.853 9.50692 44.41 10.2009 44.601C10.8799 44.789 11.2239 45.484 11.2239 46.666V49.575H9.62392V46.666V46.65C9.60492 46.679 9.58692 46.71 9.56692 46.742L5.29092 53.867Z" fill="#727271"/>
<path d="M23.3148 53.867L19.0398 46.743C19.0198 46.71 19.0008 46.68 18.9818 46.65V46.667V49.576H17.3818V46.667C17.3818 45.484 17.7258 44.79 18.4038 44.602C19.0958 44.412 19.7708 44.854 20.4108 45.92L24.6848 53.043L23.3148 53.867Z" fill="#727271"/>
<path d="M40.6859 53.866L39.3149 53.044L43.5889 45.92C44.2279 44.854 44.8999 44.411 45.5949 44.602C46.2739 44.79 46.6169 45.485 46.6169 46.667V49.576H45.0169V46.667V46.65C44.9979 46.679 44.9789 46.71 44.9599 46.742L40.6859 53.866Z" fill="#727271"/>
<path d="M58.7079 53.866L54.4329 46.742C54.4119 46.71 54.3929 46.679 54.3749 46.648V46.661V49.576H52.7749V46.667C52.7749 45.484 53.1189 44.79 53.7969 44.602C54.4869 44.412 55.1639 44.854 55.8039 45.919L60.0779 53.044L58.7079 53.866Z" fill="#736670"/>
<path d="M18.982 55.466H9.62402V49.576H11.224V53.867H17.382V49.576H18.982V55.466Z" fill="#727271"/>
<path d="M54.3748 55.466H45.0178V49.576H46.6168V53.867H52.7758V49.576H54.3748V55.466Z" fill="#727271"/>
<path d="M46.4188 34.715C45.8028 35.157 45.3458 35.706 44.9808 36.315H36.8618C36.4288 35.595 35.9378 35.111 35.4238 34.715H46.4188Z" fill="#727271"/>
<path d="M28.7548 34.715H17.6948C18.2298 35.099 18.7078 35.638 19.1348 36.315H27.3148C27.6688 35.697 28.1628 35.173 28.7548 34.715Z" fill="#727271"/>
<path d="M14.361 43.114C12.179 43.114 10.405 41.339 10.405 39.157C10.405 36.975 12.179 35.201 14.361 35.201C16.543 35.201 18.318 36.975 18.318 39.157C18.318 41.338 16.542 43.114 14.361 43.114ZM14.361 36.8C13.062 36.8 12.005 37.858 12.005 39.157C12.005 40.457 13.063 41.514 14.361 41.514C15.661 41.514 16.718 40.456 16.718 39.157C16.718 37.858 15.66 36.8 14.361 36.8Z" fill="#B8B8B8"/>
<path d="M32.0878 43.114C29.9058 43.114 28.1318 41.339 28.1318 39.157C28.1318 36.975 29.9058 35.201 32.0878 35.201C34.2698 35.201 36.0448 36.975 36.0448 39.157C36.0448 41.338 34.2698 43.114 32.0878 43.114ZM32.0878 36.8C30.7888 36.8 29.7318 37.858 29.7318 39.157C29.7318 40.457 30.7898 41.514 32.0878 41.514C33.3878 41.514 34.4458 40.456 34.4458 39.157C34.4458 37.858 33.3878 36.8 32.0878 36.8Z" fill="#B8B8B8"/>
<path d="M49.7549 43.114C47.5729 43.114 45.7979 41.339 45.7979 39.157C45.7979 36.975 47.5729 35.201 49.7549 35.201C51.9369 35.201 53.7108 36.975 53.7108 39.157C53.7108 41.338 51.9369 43.114 49.7549 43.114ZM49.7549 36.8C48.4549 36.8 47.3979 37.858 47.3979 39.157C47.3979 40.457 48.4559 41.514 49.7549 41.514C51.0539 41.514 52.1119 40.456 52.1119 39.157C52.1119 37.858 51.0539 36.8 49.7549 36.8Z" fill="#B8B8B8"/>
</svg>
