<svg width="29" height="42" viewBox="0 0 29 42" fill="none" xmlns="http://www.w3.org/2000/svg">
<path d="M14.145 24.355C7.43 24.355 1.968 18.893 1.968 12.178C1.968 5.463 7.43 0 14.145 0C20.86 0 26.323 5.463 26.323 12.178C26.323 18.892 20.86 24.355 14.145 24.355ZM14.145 1.6C8.312 1.6 3.567 6.346 3.567 12.178C3.567 18.01 8.312 22.755 14.145 22.755C19.978 22.755 24.723 18.01 24.723 12.178C24.723 6.345 19.978 1.6 14.145 1.6Z" fill="#FF671B"/>
<path d="M23.291 22.452C22.863 22.833 22.419 23.195 21.946 23.521L25.564 35.278L21.844 33.136L19.973 36.998L16.507 25.736C15.977 25.828 15.437 25.886 14.888 25.916L19.639 41.356L22.535 35.38L28.288 38.693L23.291 22.452Z" fill="#FFB38D"/>
<path d="M11.783 25.737L8.317 36.999L6.445 33.137L2.726 35.279L6.344 23.522C5.871 23.196 5.427 22.834 4.999 22.453L0 38.695L5.754 35.382L8.65 41.358L13.402 25.918C12.853 25.887 12.313 25.829 11.783 25.737Z" fill="#FFB38D"/>
<path d="M13.545 8.87196V15.578H15.145V6.28296L11.587 8.06296L12.303 9.49296L13.545 8.87196Z" fill="white"/>
<path d="M16.745 15.578H11.545V17.178H16.745V15.578Z" fill="white"/>
</svg>
