<svg width="64" height="64" viewBox="0 0 64 64" fill="none" xmlns="http://www.w3.org/2000/svg">
<path d="M48.6959 54.269H15.0959V10.002H40.6959V18.002H48.6959V54.269ZM16.6959 52.669H47.0959V19.602H39.0959V11.602H16.6959V52.669Z" fill="#FF671B"/>
<path d="M40.6701 9.9652L39.5366 11.0958L47.5365 19.116L48.67 17.9854L40.6701 9.9652Z" fill="#FF671B"/>
<path d="M23.896 23.3361H21.229V24.9361H23.896V23.3361Z" fill="#FF671B"/>
<path d="M42.563 23.3361H26.563V24.9361H42.563V23.3361Z" fill="#B8B8B8"/>
<path d="M23.896 28.6689H21.229V30.2689H23.896V28.6689Z" fill="#FF671B"/>
<path d="M42.563 28.6689H26.563V30.2689H42.563V28.6689Z" fill="#B8B8B8"/>
<path d="M23.896 34.002H21.229V35.602H23.896V34.002Z" fill="#FF671B"/>
<path d="M42.563 34.002H26.563V35.602H42.563V34.002Z" fill="#B8B8B8"/>
<path d="M23.896 39.3361H21.229V40.9361H23.896V39.3361Z" fill="#FF671B"/>
<path d="M42.563 39.3361H26.563V40.9361H42.563V39.3361Z" fill="#B8B8B8"/>
<path d="M23.896 44.6689H21.229V46.2689H23.896V44.6689Z" fill="#FF671B"/>
<path d="M42.563 44.6689H26.563V46.2689H42.563V44.6689Z" fill="#B8B8B8"/>
</svg>
