<svg width="64" height="64" viewBox="0 0 64 64" fill="none" xmlns="http://www.w3.org/2000/svg">
<path d="M22.1391 41.191H20.5391V53.622H22.1391V41.191Z" fill="#B8B8B8"/>
<path d="M34.6721 17.888H29.3381V19.488H34.6721V17.888Z" fill="#FFB38D"/>
<path d="M16.8051 41.191H15.2051V53.622H16.8051V41.191Z" fill="#B8B8B8"/>
<path d="M43.4721 41.191H41.8721V53.622H43.4721V41.191Z" fill="#B8B8B8"/>
<path d="M48.8051 41.191H47.2051V53.622H48.8051V41.191Z" fill="#B8B8B8"/>
<path d="M32.8051 10.995V5.35501H31.2051V10.995C31.4711 10.979 31.7351 10.954 32.0051 10.954C32.2751 10.954 32.5391 10.979 32.8051 10.995Z" fill="#FF671B"/>
<path d="M32.0051 14.155C36.6161 14.155 40.4881 17.34 41.5651 21.622H43.2151C42.1631 16.702 37.9451 12.953 32.8051 12.596C32.5401 12.578 32.2751 12.556 32.0051 12.556C31.7351 12.556 31.4711 12.578 31.2051 12.596C26.0651 12.953 21.8481 16.702 20.7961 21.622H22.4461C23.5231 17.339 27.3941 14.155 32.0051 14.155Z" fill="#B8B8B8"/>
<path d="M16.8051 24.822H47.2051V36.39H48.8051V23.222H45.0321H43.4311H41.8311H40.2311H23.7801H22.1791H20.5801H18.9791H15.2051V36.39H16.8051V24.822Z" fill="#727271"/>
<path d="M27.472 35.077V28.555H20.95V35.077H27.472ZM22.549 30.155H25.872V33.478H22.549V30.155Z" fill="#B8B8B8"/>
<path d="M43.0611 35.077V28.555H36.5391V35.077H43.0611ZM38.1391 30.155H41.4621V33.478H38.1391V30.155Z" fill="#B8B8B8"/>
<path d="M50.4051 37.991H48.8051H47.2051H45.6041H18.4051H16.8051H15.2051H13.6041H9.87207V56.822H26.0651V55.222H22.1391H20.5391H16.8051H15.2051H11.4721V39.59H52.5391V55.222H48.8051H47.2051H43.4721H41.8721H37.9451V56.822H54.1391V37.991H50.4051Z" fill="#727271"/>
<path d="M32.005 44.555C29.612 44.555 27.666 46.501 27.666 48.895V53.621V55.222V56.774H36.345V55.222V53.621V48.895C36.345 46.501 34.398 44.555 32.005 44.555ZM34.745 53.621V55.174H29.265V53.621V48.895C29.265 47.384 30.494 46.155 32.004 46.155C33.515 46.155 34.744 47.385 34.744 48.895L34.745 53.621Z" fill="#FF671B"/>
</svg>
